<?xml version="1.0" standalone="no"?>
<!DOCTYPE svg PUBLIC "-//W3C//DTD SVG 20010904//EN"
 "http://www.w3.org/TR/2001/REC-SVG-20010904/DTD/svg10.dtd">
<svg version="1.0" xmlns="http://www.w3.org/2000/svg"
 width="2048.000000pt" height="2048.000000pt" viewBox="0 0 2048.000000 2048.000000"
 preserveAspectRatio="xMidYMid meet">
<metadata>
Created by potrace 1.14, written by Peter Selinger 2001-2017
</metadata>
<g transform="translate(0.000000,2048.000000) scale(0.100000,-0.100000)"
fill="#000000" stroke="none">
<path d="M0 10240 l0 -10240 10240 0 10240 0 0 10240 0 10240 -10240 0 -10240
0 0 -10240z m6330 4125 c1399 -139 2514 -748 3237 -1768 410 -578 693 -1282
828 -2057 79 -456 97 -708 102 -1447 l5 -623 -3573 0 -3572 0 7 -152 c31 -710
229 -1293 595 -1752 288 -361 678 -622 1135 -760 577 -175 1332 -163 1856 31
391 144 734 398 955 708 64 89 186 315 220 408 14 36 23 47 39 47 35 0 2228
-249 2232 -253 2 -2 -11 -60 -30 -128 -385 -1394 -1529 -2377 -3141 -2698
-601 -120 -1322 -151 -1970 -86 -887 91 -1675 371 -2316 826 -199 141 -355
274 -549 468 -359 359 -594 687 -830 1156 -127 252 -214 461 -297 715 -365
1118 -403 2595 -98 3775 186 720 511 1383 940 1920 537 673 1258 1176 2065
1444 403 133 813 209 1305 241 182 12 670 3 855 -15z m9435 15 c810 -42 1434
-189 1986 -466 733 -367 1292 -970 1582 -1709 77 -196 155 -462 181 -621 l7
-40 -103 -12 c-57 -6 -539 -59 -1073 -117 -533 -57 -982 -107 -996 -109 -26
-5 -28 -1 -59 87 -205 594 -692 1015 -1320 1141 -200 40 -323 49 -612 43 -328
-6 -500 -32 -738 -109 -503 -162 -840 -457 -930 -813 -27 -105 -36 -276 -21
-390 66 -496 460 -797 1326 -1014 66 -17 523 -116 1015 -221 492 -105 968
-208 1056 -230 1115 -269 1882 -722 2297 -1355 134 -206 255 -495 311 -746 53
-239 61 -323 61 -629 -1 -245 -4 -305 -23 -429 -98 -627 -360 -1137 -822
-1602 -360 -362 -775 -629 -1315 -847 -302 -121 -667 -226 -1000 -287 -693
-127 -1540 -138 -2294 -29 -1123 161 -1996 597 -2595 1295 -325 379 -547 829
-670 1361 -44 191 -54 268 -35 268 13 0 713 67 1878 180 233 23 433 40 444 38
16 -2 24 -19 43 -88 190 -714 714 -1150 1531 -1275 190 -29 464 -40 675 -27
415 25 698 92 983 233 509 250 771 643 725 1087 -25 242 -113 418 -294 589
-177 168 -410 291 -746 395 -160 49 -222 63 -1204 269 -1076 226 -1111 234
-1332 295 -541 148 -1016 363 -1379 622 -433 310 -751 737 -913 1227 -89 269
-129 509 -139 840 -20 714 161 1293 567 1805 163 206 421 445 662 613 329 230
775 435 1228 566 601 173 1336 249 2055 211z"/>
<path d="M5503 12485 c-437 -55 -833 -224 -1188 -505 -419 -332 -736 -827
-871 -1360 -32 -125 -67 -342 -77 -467 l-4 -53 2410 0 2410 0 -6 148 c-31 707
-345 1353 -857 1764 -303 243 -630 388 -1035 460 -149 26 -615 34 -782 13z"/>
</g>
</svg>
